# xmcd CD database file
#
# Track frame offsets:
#	150
#	55975
#	87150
#	112385
#	160262
#	195780
#	225025
#	259615
#	308485
#	331725
#
# Disc length: 4711 seconds
#
# Revision: 0
# Processed by: cddbd v1.4PL0 Copyright (c) Steve Scherf et al.
# Submitted via: CDex 1.50beta9
#
DISCID=6f12650a
DTITLE=Various Artist - Shades of RED
DYEAR=1900
DGENRE=Jazz
TTITLE0=Move your Hand - Lonnie Smith Group
TTITLE1=Little B's Poem - Kevin Eubanks Quartet
TTITLE2=Un Poco Loco - Jacky Terrasson Trio
TTITLE3=Crisis - Bob Belden with Tim Hagens
TTITLE4=Love Bug - Ruben Wilsin - Ronnie Cuber
TTITLE5=Maiden Voyage - Dianne Reeves - Geri Allen
TTITLE6=You've Changed - Marcus Printup Quartet
TTITLE7=Good Old Days - Geri Allen - Joe Lovano - Wallace Roney
TTITLE8=Recado Bossa Nova - Gonzalo Rubalcaba Trio
TTITLE9=Alligator Boogie - Junko Onishi - Freddie Hubbard with K.C.B
EXTD=
EXTT0=
EXTT1=
EXTT2=
EXTT3=
EXTT4=
EXTT5=
EXTT6=
EXTT7=
EXTT8=
EXTT9=
PLAYORDER=
